<svg width="72" height="61" viewBox="0 0 72 61" fill="none" xmlns="http://www.w3.org/2000/svg">
<path d="M2.39928 18.2472C2.38059 14.2644 3.88373 10.6 6.48106 7.5655C9.07769 4.53183 12.6779 2.51774 16.631 1.87334C20.5835 1.22904 24.6421 1.99398 28.081 4.03692C31.5211 6.08058 34.719 9.26633 35.9993 13.0405" stroke="black" stroke-width="2" stroke-linecap="round"/>
<path d="M36.4157 13.3901C37.5804 9.78967 39.9746 6.69538 43.1946 4.63601C46.4148 2.57646 50.2606 1.68022 54.0774 2.10173C57.8941 2.52323 61.4425 4.23597 64.1197 6.94539C66.7967 9.65453 68.4374 13.1927 68.766 16.9571" stroke="black" stroke-width="2" stroke-linecap="round"/>
<path d="M2.4 18.2472C2.26965 20.819 2.56425 27.2318 4.91058 31.4752C7.77838 37.3902 18.2848 51.2262 35.8044 59.25C43.3649 55.9068 60.0503 45.6712 66.3073 31.4752C67.0894 29.675 68.7318 25.0716 69.0447 21.0596M1 31.4752H11.9497L14.6872 23.3742L20.9441 42.6623L26.8101 14.8875L30.3296 31.4752H42.8436L45.9721 23.3742L51.4469 41.1192L55.7486 16.4305L59.2682 31.4752H71" stroke="black" stroke-width="2" stroke-linecap="round"/>
</svg>
