<svg width="56" height="60" viewBox="0 0 56 60" fill="none" xmlns="http://www.w3.org/2000/svg">
<circle cx="48.1894" cy="38.4024" r="6.81065" stroke="black" stroke-width="2"/>
<path d="M46.8574 35.8204C47.4708 35.5039 48.1769 35.4162 48.8492 35.573C49.5214 35.7298 50.1159 36.1208 50.526 36.6759C50.9362 37.2311 51.1353 37.9142 51.0877 38.6028C51.0401 39.2915 50.7488 39.9406 50.2661 40.4341C49.7834 40.9275 49.1408 41.233 48.4534 41.2957C47.766 41.3584 47.0787 41.1744 46.5146 40.7765C45.9506 40.3786 45.5466 39.7929 45.3751 39.1242C45.2036 38.4556 45.2758 37.7478 45.5787 37.1275" stroke="black" stroke-width="2" stroke-linecap="round"/>
<path d="M40.7041 36.4497L35.4969 36.4497C33.7612 37.1006 29.9644 39.3136 28.6626 42.9586V50.1183C28.4457 51.4201 27.1656 54.0237 23.781 54.0237C22.3707 54.1322 19.3549 53.503 18.5739 50.1183V36.4497C22.1537 35.7988 29.5739 32.284 30.6153 23.432V22.4556C30.2899 21.8048 29.9645 21.8048 29.6389 21.8047H28.8253M26.71 24.7337L27.0354 22.4556C27.3609 21.8048 27.6864 21.8048 28.0117 21.8047H28.8253M26.0591 26.6864C23.9762 31.6331 19.1163 32.6529 16.9466 32.5444C14.0176 32.7613 7.76913 31.0473 6.207 22.4556L5.88155 21.8047C5.62629 21.5495 5.01063 21.2141 4.25444 21.4583M14.994 44.5858V36.4497C6.14197 34.3669 3.27802 26.6864 2.95256 23.1065C2.90112 22.54 3.278 22.0217 3.60345 21.8047C3.82802 21.6363 4.04654 21.5254 4.25444 21.4583M14.994 47.5148V51.0947C15.5364 53.3728 18.0531 57.9941 23.781 58.2545C26.2761 58.2545 31.3965 56.8225 31.9172 51.0947V44.2604C32.2426 43.1756 33.4793 40.8107 35.8225 40.0296H40.7041M28.8253 21.8047L32.8935 9.11244V6.18345C32.785 5.3156 32.0473 3.51481 29.9645 3.25446H27.0355M4.25444 21.4583L1 9.11244V6.18345C1.10848 5.3156 1.91124 3.51481 4.25444 3.25446H6.2071" stroke="black" stroke-width="2" stroke-linecap="round" stroke-linejoin="round"/>
<circle cx="9.46153" cy="3.57988" r="2.57988" stroke="black" stroke-width="2"/>
<circle cx="23.7811" cy="3.57988" r="2.57988" stroke="black" stroke-width="2"/>
</svg>
