<svg width="36" height="35" viewBox="0 0 36 35" fill="none" xmlns="http://www.w3.org/2000/svg">
<path d="M18.1667 3.15292C22.8392 3.15292 23.3934 3.17042 25.2381 3.255C27.1456 3.3425 29.11 3.77708 30.4998 5.16687C31.9027 6.56979 32.3242 8.51521 32.4117 10.4285C32.4963 12.2733 32.5138 12.8275 32.5138 17.5C32.5138 22.1725 32.4963 22.7267 32.4117 24.5715C32.3256 26.4688 31.8809 28.4521 30.4998 29.8331C29.0969 31.236 27.1529 31.6575 25.2381 31.745C23.3934 31.8296 22.8392 31.8471 18.1667 31.8471C13.4942 31.8471 12.94 31.8296 11.0952 31.745C9.21252 31.659 7.20294 31.204 5.83356 29.8331C4.43794 28.4375 4.00919 26.4731 3.92169 24.5715C3.8371 22.7267 3.8196 22.1725 3.8196 17.5C3.8196 12.8275 3.8371 12.2733 3.92169 10.4285C4.00773 8.53854 4.4569 6.54354 5.83356 5.16687C7.23356 3.76688 9.18627 3.3425 11.0952 3.255C12.94 3.17042 13.4942 3.15292 18.1667 3.15292ZM18.1667 0C13.414 0 12.8175 0.0204167 10.9509 0.105C8.24565 0.228958 5.5594 0.981458 3.60377 2.93708C1.64085 4.9 0.895645 7.58042 0.771687 10.2842C0.687104 12.1508 0.666687 12.7473 0.666687 17.5C0.666687 22.2527 0.687104 22.8492 0.771687 24.7158C0.895645 27.4181 1.65106 30.1117 3.60377 32.0629C5.56523 34.0244 8.25002 34.771 10.9509 34.895C12.8175 34.9796 13.414 35 18.1667 35C22.9194 35 23.5159 34.9796 25.3825 34.895C28.0863 34.771 30.7754 34.0171 32.7296 32.0629C34.694 30.0985 35.4377 27.4196 35.5617 24.7158C35.6463 22.8492 35.6667 22.2527 35.6667 17.5C35.6667 12.7473 35.6463 12.1508 35.5617 10.2842C35.4377 7.57896 34.6838 4.89125 32.7296 2.93708C30.7711 0.978542 28.079 0.2275 25.3825 0.105C23.5159 0.0204167 22.9194 0 18.1667 0Z" fill="black"/>
<path d="M18.1667 8.51392C13.204 8.51392 9.18042 12.5375 9.18042 17.5002C9.18042 22.4629 13.204 26.4864 18.1667 26.4864C23.1294 26.4864 27.1529 22.4629 27.1529 17.5002C27.1529 12.5375 23.1294 8.51392 18.1667 8.51392ZM18.1667 23.3335C14.9452 23.3335 12.3333 20.7216 12.3333 17.5002C12.3333 14.2787 14.9452 11.6668 18.1667 11.6668C21.3881 11.6668 24 14.2787 24 17.5002C24 20.7216 21.3881 23.3335 18.1667 23.3335Z" fill="black"/>
<path d="M27.5088 10.2579C28.6686 10.2579 29.6088 9.31766 29.6088 8.15786C29.6088 6.99806 28.6686 6.05786 27.5088 6.05786C26.349 6.05786 25.4088 6.99806 25.4088 8.15786C25.4088 9.31766 26.349 10.2579 27.5088 10.2579Z" fill="black"/>
</svg>
