<svg width="60" height="60" viewBox="0 0 60 60" fill="none" xmlns="http://www.w3.org/2000/svg">
<path d="M23.2986 27.5471C24.6299 21.2065 16.9751 9.494 12.9813 4.43033C11.9829 2.77915 13.7135 -0.126964 16.6423 1.45818C21.0798 4.76057 30.8868 14.6017 34.6143 27.5471" stroke="black" stroke-width="2" stroke-linecap="round"/>
<path d="M58.5754 46.3707C58.5754 52.9242 53.2192 58.25 46.5956 58.25C39.9721 58.25 34.6159 52.9242 34.6159 46.3707C34.6159 39.8173 39.9721 34.4914 46.5956 34.4914C53.2192 34.4914 58.5754 39.8173 58.5754 46.3707Z" stroke="black" stroke-width="2"/>
<path d="M34.1592 27.9363C35.3898 29.0321 36.3217 30.5 36.8339 32.1753C37.3462 33.8508 37.4143 35.6546 37.0289 37.3728" stroke="black" stroke-width="2"/>
<path d="M34.0223 42.4681C33.1576 43.2056 32.1746 43.7442 31.131 44.0584C30.0877 44.3725 29.0004 44.4573 27.9295 44.3092C26.8584 44.1611 25.8199 43.7822 24.8734 43.1897C23.9266 42.597 23.0891 41.8012 22.4122 40.8435C21.7353 39.8856 21.2335 38.7859 20.9392 37.6062C20.645 36.4264 20.5648 35.1931 20.7041 33.9777C20.8434 32.7623 21.1989 31.5923 21.7475 30.5346C22.2961 29.477 23.0257 28.5546 23.8906 27.817" stroke="black" stroke-width="2"/>
<path d="M31.2862 18.9608H45.5972M49.2582 18.9608H54.5832C55.3598 19.0709 56.9129 19.7534 56.9129 21.6027V24.9051M56.9129 38.7751V31.1797M33.9487 24.9051H56.9129M56.9129 24.9051V31.1797M21.6345 18.9608H3.99533C3.10783 18.9608 1.26625 19.4892 1 21.6027V32.8308M13.647 55.2871H7.6563C2.59751 55.0229 1.11094 50.5537 1 48.3521V32.8308M16.9751 55.2871H37.2768M1 32.8308C3.66252 32.1704 10.6516 31.1797 14.9782 33.1611C16.9751 35.1425 16.3095 36.1332 16.6423 40.0961C16.9751 42.1876 19.3048 46.833 25.9611 48.6823C27.2924 49.0126 30.7536 49.4749 33.9487 48.6823M41.9362 34.482C42.4909 33.2712 44.3991 30.6513 47.5941 29.8587C50.0347 29.5285 55.3154 29.3303 56.9129 31.1797M6.99067 40.7566L8.65474 38.4449M9.986 46.0404L11.9829 47.6916M17.6407 51.6545L19.3048 49.673M44.2659 38.7751H49.591V44.059H54.2504V49.0126H49.591V53.9661H44.2659V49.0126H39.2737V44.059H44.2659V38.7751Z" stroke="black" stroke-width="2" stroke-linecap="round" stroke-linejoin="round"/>
</svg>
