<svg width="59" height="61" viewBox="0 0 59 61" fill="none" xmlns="http://www.w3.org/2000/svg">
<path d="M6.2067 1.25439L18.898 14.0891M1 2.57078L21.5014 23.3038L21.176 27.9112C21.2844 28.8985 22.0871 30.8072 24.4302 30.5439C26.7732 30.2807 27.5759 27.3627 27.6844 25.9366L30.6131 25.2784C31.5894 24.5105 32.826 22.3165 29.9623 19.6838H25.081L20.8506 16.0637M22.1522 1.25439C27.6844 6.19084 42.6536 8.49451 45.257 28.5694V37.7841M1.32542 13.76C1.10847 16.7219 2.69218 23.8304 10.7626 28.5694C13.149 29.5567 18.5726 33.7691 21.176 42.7205M22.1522 45.6824C22.5861 48.0957 23.3888 54.2389 23.1285 59.5044M35.8198 59.5044V37.7841C38.3147 35.1513 42.6536 29.0959 40.0503 25.9366C39.074 24.8396 36.5358 23.3038 34.1927 25.9366C34.0843 27.8015 32.3704 32.4527 26.3827 36.1386C25.081 36.6871 22.9983 38.3764 25.081 40.7459L29.3115 41.075C29.7453 41.1847 30.6131 41.6674 30.6131 42.7205V59.5044M45.257 53.5807V59.5044M47.5349 40.7459H51.4399V44.0369H54.6941V47.986H51.4399V51.277H47.5349V47.986H44.2807V44.0369H47.5349V40.7459Z" stroke="black" stroke-width="2" stroke-linecap="round" stroke-linejoin="round"/>
<path d="M57.8492 46.0114C57.8492 50.6943 54.0976 54.4761 49.4874 54.4761C44.8773 54.4761 41.1257 50.6943 41.1257 46.0114C41.1257 41.3286 44.8773 37.5468 49.4874 37.5468C54.0976 37.5468 57.8492 41.3286 57.8492 46.0114Z" stroke="black" stroke-width="1.5"/>
</svg>
