<svg width="51" height="50" viewBox="0 0 51 50" fill="none" xmlns="http://www.w3.org/2000/svg">
<path d="M50.1546 45.8995L35.4954 31.2403C37.9287 27.993 39.3889 23.9773 39.3889 19.6171C39.3889 8.89489 30.6667 0.172668 19.9444 0.172668C9.22222 0.172668 0.5 8.89489 0.5 19.6171C0.5 30.3393 9.22222 39.0616 19.9444 39.0616C24.3046 39.0616 28.3204 37.6014 31.5676 35.168L46.2268 49.8273L50.1546 45.8995ZM2.35185 19.6171C2.35185 9.91619 10.2435 2.02452 19.9444 2.02452C29.6454 2.02452 37.537 9.91619 37.537 19.6171C37.537 29.318 29.6454 37.2097 19.9444 37.2097C10.2435 37.2097 2.35185 29.318 2.35185 19.6171ZM33.4324 33.5921C33.5972 33.4329 33.7593 33.2708 33.9185 33.106C34.0537 32.9662 34.2 32.8375 34.3306 32.694L47.5361 45.8995L46.2259 47.2097L33.0213 34.0032C33.1648 33.8727 33.2926 33.7264 33.4324 33.5921Z" fill="#1F7A8F"/>
<path d="M20.8704 16.8393H19.0185V14.9875C19.0185 14.7419 18.921 14.5064 18.7473 14.3328C18.5737 14.1591 18.3382 14.0616 18.0926 14.0616C17.847 14.0616 17.6115 14.1591 17.4379 14.3328C17.2642 14.5064 17.1667 14.7419 17.1667 14.9875V16.8393H15.3148C15.0692 16.8393 14.8337 16.9369 14.6601 17.1105C14.4864 17.2842 14.3889 17.5197 14.3889 17.7653C14.3889 18.0108 14.4864 18.2463 14.6601 18.42C14.8337 18.5936 15.0692 18.6912 15.3148 18.6912H17.1667V20.543C17.1667 20.7886 17.2642 21.0241 17.4379 21.1978C17.6115 21.3714 17.847 21.469 18.0926 21.469C18.3382 21.469 18.5737 21.3714 18.7473 21.1978C18.921 21.0241 19.0185 20.7886 19.0185 20.543V18.6912H20.8704C21.1159 18.6912 21.3514 18.5936 21.5251 18.42C21.6987 18.2463 21.7963 18.0108 21.7963 17.7653C21.7963 17.5197 21.6987 17.2842 21.5251 17.1105C21.3514 16.9369 21.1159 16.8393 20.8704 16.8393ZM25.5 22.3949V13.1356C25.5 12.3989 25.2073 11.6924 24.6864 11.1714C24.1655 10.6505 23.4589 10.3578 22.7222 10.3578H13.463C12.7262 10.3578 12.0197 10.6505 11.4988 11.1714C10.9778 11.6924 10.6852 12.3989 10.6852 13.1356V22.3949C10.6852 23.1316 10.9778 23.8381 11.4988 24.3591C12.0197 24.88 12.7262 25.1727 13.463 25.1727H22.7222C23.4589 25.1727 24.1655 24.88 24.6864 24.3591C25.2073 23.8381 25.5 23.1316 25.5 22.3949V22.3949ZM12.537 22.3949V13.1356C12.537 12.8901 12.6346 12.6545 12.8082 12.4809C12.9819 12.3073 13.2174 12.2097 13.463 12.2097H22.7222C22.9678 12.2097 23.2033 12.3073 23.3769 12.4809C23.5506 12.6545 23.6481 12.8901 23.6481 13.1356V22.3949C23.6481 22.6405 23.5506 22.876 23.3769 23.0496C23.2033 23.2233 22.9678 23.3208 22.7222 23.3208H13.463C13.2174 23.3208 12.9819 23.2233 12.8082 23.0496C12.6346 22.876 12.537 22.6405 12.537 22.3949ZM28.2778 14.0616C28.0322 14.0616 27.7967 14.1591 27.623 14.3328C27.4494 14.5064 27.3518 14.7419 27.3518 14.9875V24.2467C27.3518 24.9835 27.0592 25.69 26.5383 26.2109C26.0173 26.7319 25.3108 27.0245 24.5741 27.0245H15.3148C15.0692 27.0245 14.8337 27.1221 14.6601 27.2957C14.4864 27.4694 14.3889 27.7049 14.3889 27.9504C14.3889 28.196 14.4864 28.4315 14.6601 28.6052C14.8337 28.7788 15.0692 28.8764 15.3148 28.8764H24.5741C25.8019 28.8764 26.9795 28.3886 27.8477 27.5204C28.7159 26.6522 29.2037 25.4746 29.2037 24.2467V14.9875C29.2037 14.7419 29.1061 14.5064 28.9325 14.3328C28.7589 14.1591 28.5233 14.0616 28.2778 14.0616Z" fill="#1F7A8F"/>
</svg>
