<svg width="50" height="50" viewBox="0 0 50 50" fill="none" xmlns="http://www.w3.org/2000/svg">
<path fill-rule="evenodd" clip-rule="evenodd" d="M25.1851 22.4074C30.6084 22.4074 35 18.0158 35 12.5926C35 7.16931 30.6084 2.77778 25.1851 2.77778C19.7619 2.77778 15.3704 7.16931 15.3704 12.5926C15.3704 18.0158 19.7619 22.4074 25.1851 22.4074ZM37.7777 12.5926C37.7777 19.55 32.1425 25.1851 25.1851 25.1851C18.2277 25.1851 12.5926 19.55 12.5926 12.5926C12.5926 5.63514 18.2277 0 25.1851 0C32.1425 0 37.7777 5.63514 37.7777 12.5926Z" fill="#1F7A8F"/>
<path fill-rule="evenodd" clip-rule="evenodd" d="M16.8408 30.0391C16.5238 29.3894 15.8075 29.0383 15.1092 29.21C7.60347 31.0544 0 34.8154 0 40.4732V47.2222V50H2.77778H47.2222H50V47.2222V40.4732C50 34.8154 42.3965 31.0544 34.8908 29.21C34.1925 29.0383 33.4762 29.3894 33.1592 30.0391H27.5146C26.2803 30.0394 25.6518 30.0394 25.0344 30.0394C24.394 30.0393 23.7656 30.0393 22.4851 30.0396L16.8408 30.0391ZM27.5151 32.8169C27.5149 32.8169 27.5147 32.8169 27.5146 32.8169C26.2725 32.8172 25.6472 32.8172 25.0333 32.8172C24.3969 32.8171 23.7725 32.8171 22.4858 32.8173H22.485L16.8406 32.8169L15.1053 32.8168L14.7856 32.1616C11.5601 33.0318 8.51778 34.243 6.2725 35.7283C3.73975 37.4037 2.77778 39.0271 2.77778 40.4732V47.2222H47.2222V40.4732C47.2222 39.0271 46.2603 37.4037 43.7275 35.7283C41.4822 34.243 38.4399 33.0318 35.2144 32.1616L34.8947 32.8169H33.1592H27.5151Z" fill="#1F7A8F"/>
<path fill-rule="evenodd" clip-rule="evenodd" d="M13.8889 40.1442C14.6367 40.1442 15.2778 39.5279 15.2778 38.7244C15.2778 37.921 14.6367 37.3047 13.8889 37.3047C13.1411 37.3047 12.5 37.921 12.5 38.7244C12.5 39.5279 13.1411 40.1442 13.8889 40.1442ZM13.8889 42.9219C16.1901 42.9219 18.0556 41.0426 18.0556 38.7244C18.0556 36.4063 16.1901 34.5269 13.8889 34.5269C11.5876 34.5269 9.72223 36.4063 9.72223 38.7244C9.72223 41.0426 11.5876 42.9219 13.8889 42.9219Z" fill="#1F7A8F"/>
<path d="M13.3825 31.4051C13.0802 32.4251 13.1098 33.6805 13.7362 35.223L11.1626 36.2682C10.5465 34.7511 10.3184 33.3004 10.4573 31.9443C10.5037 31.4905 10.5913 31.0474 10.7191 30.616L13.3825 31.4051Z" fill="#1F7A8F"/>
<path d="M36.8539 35.4111L39.5501 36.0801C39.8981 34.6776 39.9708 33.3596 39.7917 32.1382L36.6826 31.22C37.1431 32.3389 37.2749 33.7149 36.8539 35.4111Z" fill="#1F7A8F"/>
<path fill-rule="evenodd" clip-rule="evenodd" d="M35.315 35.0347C35.5629 34.8326 35.8729 34.7222 36.1927 34.7222H40.1961C40.5159 34.7222 40.8259 34.8326 41.0738 35.0347L43.9333 37.3666C44.2568 37.6305 44.4444 38.0257 44.4444 38.443V44.5061C44.4444 45.2732 43.8226 45.895 43.0555 45.895H40.1961V43.1172H41.6666V39.1026L39.7015 37.5H36.6873L34.7222 39.1026V43.1172H36.1927V45.895H33.3333C32.5662 45.895 31.9444 45.2732 31.9444 44.5061V38.443C31.9444 38.0257 32.132 37.6305 32.4555 37.3666L35.315 35.0347Z" fill="#1F7A8F"/>
</svg>
