<svg width="52" height="54" viewBox="0 0 52 54" fill="none" xmlns="http://www.w3.org/2000/svg">
<path d="M16.4489 52.9311L21.7203 46.6681L29.81 45.6764" stroke="#1F7A8F" stroke-width="1.5" stroke-linecap="round"/>
<path d="M33.2025 45.2589L34.4306 45.1329C34.9671 45.0779 35.4956 44.962 36.0059 44.7874V44.7874C36.8097 44.5124 37.5576 44.0956 38.2142 43.5567L49.8409 34.0145C50.1575 33.7547 50.4136 33.4289 50.5912 33.0598L50.6834 32.8683C50.8889 32.4417 50.9498 31.9597 50.8569 31.4953V31.4953C50.7798 31.1097 50.5997 30.7521 50.3359 30.4604L50.277 30.3954C49.9346 30.0169 49.4714 29.7691 48.9666 29.6943V29.6943C48.556 29.6335 48.1367 29.6899 47.7568 29.8571L47.4902 29.9744C47.1875 30.1076 46.9072 30.2867 46.6591 30.5055L44.8131 32.1335C41.3964 35.1469 37.0131 36.8365 32.4577 36.896L31.5324 36.9081M45.6242 31.3236V30.5926C45.6242 30.2496 45.5443 29.9112 45.3909 29.6044V29.6044C45.1078 29.0382 44.5944 28.6203 43.9827 28.4572V28.4572C43.589 28.3522 43.1732 28.3577 42.7826 28.4735L42.5828 28.5326C42.1794 28.6522 41.8062 28.8565 41.4882 29.1319L37.2996 32.7589L31.5324 36.9081M40.2484 29.4969V28.9851C40.2484 28.4748 40.0582 27.9829 39.715 27.6053V27.6053C39.3856 27.243 38.9375 27.0105 38.4517 26.9497L38.4369 26.9479C38.1179 26.908 37.794 26.9422 37.4904 27.0478L37.2952 27.1157C36.9361 27.2406 36.6043 27.4332 36.3176 27.683L31.0626 32.263M22.0856 38.1608H29.4349C29.7164 38.1608 29.9946 38.0997 30.2502 37.9817V37.9817C30.4426 37.8929 30.6192 37.7733 30.773 37.6276L31.5324 36.9081M31.5324 36.9081L31.8479 35.93C31.9828 35.5118 31.9978 35.0642 31.8912 34.638V34.638C31.7928 34.2444 31.5943 33.883 31.3149 33.5889L31.1994 33.4674C30.903 33.1553 30.5426 32.911 30.1429 32.7511L30.0557 32.7162C29.6521 32.5548 29.2213 32.4718 28.7866 32.4718H17.9995C17.3161 32.4718 16.6352 32.5532 15.971 32.7142V32.7142C15.4902 32.8307 15.0203 32.9885 14.5666 33.1858L12.8476 33.9332M1 48.0251L6.31095 41.2233C6.73574 40.6793 7.1023 40.0922 7.40459 39.4717V39.4717C7.76119 38.7397 8.20699 38.0547 8.73182 37.4322L10.1858 35.7077M16.6576 8.72443L16.9858 7.61354C17.2183 6.82681 17.5565 6.07531 17.9913 5.37965L18.0142 5.34298C18.4301 4.67756 18.9338 4.07119 19.5116 3.54024V3.54024C20.2138 2.89494 21.0169 2.36897 21.8891 1.98319L21.9917 1.93785C22.8497 1.55831 23.7597 1.30914 24.6915 1.19859L25.0344 1.15791C25.9167 1.05323 26.8097 1.08162 27.6836 1.24213V1.24213C28.5056 1.39311 29.3021 1.65941 30.0496 2.03316L30.1697 2.09318C30.9357 2.47618 31.6483 2.95772 32.2894 3.52555L32.5774 3.78064C32.9586 4.11833 33.3103 4.48805 33.6284 4.88574L33.7343 5.01808C34.1779 5.5726 34.5427 6.18582 34.8183 6.84031V6.84031C35.0967 7.50163 35.2814 8.19863 35.3669 8.91107L35.4252 9.39724C35.5089 10.0948 35.515 10.7994 35.4433 11.4983V11.4983C35.3762 12.1525 35.2414 12.798 35.0409 13.4243L34.9874 13.5915C34.6689 14.5868 34.2125 15.5326 33.6315 16.4012L29.5062 22.5687C29.33 22.8322 29.2359 23.1421 29.2359 23.4591V24.7474C29.2359 24.9203 29.0957 25.0605 28.9228 25.0605V25.0605M16.6576 11.6994V11.6994C16.6576 12.2174 16.7473 12.7315 16.9228 13.2189L17.2138 14.0272C17.4684 14.7344 17.8068 15.4086 18.2219 16.0353L22.5495 22.57C22.7235 22.8328 22.8163 23.1409 22.8163 23.456V24.6952C22.8163 24.897 22.9799 25.0605 23.1816 25.0605V25.0605M23.1816 25.0605V28.1172C23.1816 28.5661 23.36 28.9967 23.6775 29.3142V29.3142C23.9949 29.6317 24.4255 29.81 24.8745 29.81H27.2299C27.6789 29.81 28.1095 29.6317 28.4269 29.3142V29.3142C28.7444 28.9967 28.9228 28.5661 28.9228 28.1172V25.0605M23.1816 25.0605H24.5908M28.9228 25.0605H27.5136M24.5908 25.0605L24.1645 15.9791M24.5908 25.0605H27.5136M24.1645 15.9791L24.0973 14.549C24.079 14.1595 23.9161 13.7908 23.6403 13.5151L23.579 13.4538C23.3246 13.1993 22.9795 13.0564 22.6196 13.0564V13.0564C22.2455 13.0564 21.888 13.2108 21.6316 13.4833L21.5918 13.5256C21.3391 13.7941 21.1983 14.149 21.1983 14.5177V14.5177C21.1983 14.8865 21.342 15.2445 21.5947 15.513V15.513C21.8726 15.8083 22.2633 15.9791 22.6687 15.9791H24.1645ZM24.1645 15.9791H27.9399M27.5136 25.0605L27.9399 15.9791M27.9399 15.9791L28.0071 14.549C28.0254 14.1595 28.1883 13.7908 28.464 13.5151L28.5239 13.4552C28.7793 13.1998 29.1256 13.0564 29.4868 13.0564H29.5426C29.9697 13.0564 30.3677 13.2729 30.5997 13.6315V13.6315C30.7315 13.8352 30.8017 14.0728 30.8017 14.3155V14.72C30.8017 14.9627 30.7315 15.2003 30.5997 15.404V15.404C30.3677 15.7626 29.9697 15.9791 29.5426 15.9791H27.9399ZM38.8392 6.68894L41.0835 5.74948M40.144 11.4906H42.4405M38.9436 16.2401L40.9791 17.1273M10.9165 5.69729L13.0564 6.63674M9.45511 11.4906H11.8038M11.1253 17.1273L13.0564 16.3445" stroke="#1F7A8F" stroke-width="1.5" stroke-linecap="round"/>
</svg>
