<svg width="36" height="29" viewBox="0 0 36 29" fill="none" xmlns="http://www.w3.org/2000/svg">
<path d="M31.7502 7.36025C31.7707 7.66796 31.7707 7.97713 31.7707 8.28775C31.7707 17.7771 24.5461 28.719 11.3394 28.719V28.7132C7.43837 28.719 3.61754 27.6019 0.333374 25.4946C0.900666 25.5632 1.47087 25.5967 2.04254 25.5982C5.27712 25.6011 8.41837 24.5161 10.9602 22.5182C7.88754 22.4598 5.19254 20.4561 4.25192 17.5307C5.32817 17.7378 6.4365 17.6955 7.49379 17.4082C4.14254 16.7315 1.73337 13.7871 1.73337 10.3688C1.73337 10.3382 1.73337 10.3075 1.73337 10.2784C2.73233 10.8355 3.84942 11.1432 4.99275 11.1767C1.83692 9.06942 0.862749 4.87234 2.76879 1.59109C6.41462 6.07692 11.7944 8.804 17.568 9.09421C16.989 6.60046 17.7809 3.98713 19.6446 2.23275C22.5365 -0.487039 27.085 -0.347039 29.8048 2.54484C31.4134 2.22838 32.9548 1.63775 34.365 0.802128C33.8284 2.46463 32.7069 3.87629 31.2077 4.77463C32.6325 4.604 34.0223 4.22338 35.3334 3.64296C34.3694 5.08525 33.1561 6.34379 31.7502 7.36025Z" fill="black"/>
</svg>
