<svg width="35" height="25" viewBox="0 0 35 25" fill="none" xmlns="http://www.w3.org/2000/svg">
<path d="M34.2679 4.02114C33.8654 2.50593 32.6798 1.31156 31.1733 0.906143C28.4448 0.171143 17.5 0.171143 17.5 0.171143C17.5 0.171143 6.55521 0.171143 3.82521 0.906143C2.32021 1.31156 1.13458 2.50448 0.732083 4.02114C0 6.76864 0 12.4999 0 12.4999C0 12.4999 0 18.2311 0.732083 20.9786C1.13458 22.4939 2.32021 23.6882 3.82667 24.0936C6.55521 24.8286 17.5 24.8286 17.5 24.8286C17.5 24.8286 28.4448 24.8286 31.1748 24.0936C32.6798 23.6882 33.8654 22.4953 34.2694 20.9786C35 18.2311 35 12.4999 35 12.4999C35 12.4999 35 6.76864 34.2679 4.02114ZM13.9212 17.7047V7.2951L23.0679 12.4999L13.9212 17.7047Z" fill="black"/>
</svg>
