<svg width="162" height="60" viewBox="0 0 162 60" fill="none" xmlns="http://www.w3.org/2000/svg">
<path d="M0 27.4641H6.00159L16.3006 52.3271L16.8934 51.1836L17.375 50.2614L17.8195 49.376L18.4123 48.1956L18.7827 47.4578L19.1903 46.6831L19.5978 45.8716L20.0053 45.06L20.3758 44.2854L20.7092 43.6214L21.0797 42.8836L21.4501 42.1089L21.7835 41.4449L22.1911 40.5965L22.7097 39.5267L23.1543 38.6045L23.5988 37.7192L24.0434 36.7969L24.488 35.8747L25.0437 34.7312L25.5623 33.6614L26.1551 32.4441L26.6737 31.4112L27.2294 30.3414L27.7481 29.3823L28.2667 28.4601L28.7113 27.6854L29.1559 26.8738L29.6004 26.0992L29.9709 25.4721L30.3043 24.9187L30.6007 24.4023L30.9341 23.8859L31.2305 23.4063L31.5613 22.8938L31.5639 22.8899L32.0085 22.189L32.3419 21.6725L32.6753 21.193L33.0828 20.6027C34.4042 18.7583 37.5507 14.5161 39.566 12.3028C42.0852 9.5361 45.3453 6.51122 48.7536 4.48234C52.1619 2.45345 55.4221 0.756566 61.6089 0.166346C66.5583 -0.305831 70.6854 0.338493 72.1302 0.719678C73.5627 0.990196 77.3019 2.08456 80.7992 4.29789C85.1707 7.06455 88.2456 9.46233 89.8756 10.8641C91.3166 12.1032 95.5697 15.6919 99.2116 19.9068C99.659 20.3939 100.071 20.8854 100.434 21.3774C100.038 20.8807 99.6288 20.3897 99.2116 19.9068C95.6 15.9748 89.6551 12.3327 87.8751 11.0854C84.3117 8.58858 76.5758 4.0366 70.0185 3.85523C62.0164 3.63389 57.9413 5.55211 53.6068 7.61789C47.9386 10.3193 43.3811 15.4301 40.0847 19.533C37.2691 23.0374 32.1073 32.7638 29.7486 37.3134L18.8939 60H13.7073L0 27.4641Z" fill="#052A3B"/>
<path d="M104.997 27.5H99.8511L85.0676 60H90.7971L102.465 33.35L113.869 60H119.617L104.997 27.5Z" fill="#E2E5EF"/>
<path d="M46.2498 27.5H41.1779V59.95H46.2498V27.5Z" fill="#E2E5EF"/>
<path d="M81.9039 27.5H55.2889V32.65H65.6336V59.95H71.6094V32.65H81.9039V27.5Z" fill="#E2E5EF"/>
<path d="M159.5 43.4C159.5 51.177 153.165 57.5 145.328 57.5C137.491 57.5 131.156 51.177 131.156 43.4C131.156 35.623 137.491 29.3 145.328 29.3C153.165 29.3 159.5 35.623 159.5 43.4Z" stroke="#1F7A8F" stroke-width="5"/>
<path d="M145.328 35.9V50.9" stroke="#052A3B" stroke-width="3" stroke-linecap="round"/>
<path d="M137.795 43.4H152.861" stroke="#052A3B" stroke-width="3" stroke-linecap="round"/>
</svg>
